<svg width="24" height="24" viewBox="0 0 24 24" fill="none" xmlns="http://www.w3.org/2000/svg">
<g id="logos:facebook">
<g id="Vector">
<path d="M22 12C22 6.47719 17.5228 2 12 2C6.47719 2 2 6.47719 2 12C2 16.9913 5.65687 21.1284 10.4375 21.8785V14.8906H7.89844V12H10.4375V9.79688C10.4375 7.29063 11.9305 5.90625 14.2147 5.90625C15.3088 5.90625 16.4531 6.10156 16.4531 6.10156V8.5625H15.1922C13.9499 8.5625 13.5625 9.33336 13.5625 10.1242V12H16.3359L15.8926 14.8906H13.5625V21.8785C18.3431 21.1284 22 16.9913 22 12Z" fill="#1877F2"/>
<path d="M15.8926 14.8906L16.3359 12H13.5625V10.1242C13.5625 9.33336 13.9499 8.5625 15.1922 8.5625H16.4531V6.10156C16.4531 6.10156 15.3088 5.90625 14.2147 5.90625C11.9305 5.90625 10.4375 7.29063 10.4375 9.79688V12H7.89844V14.8906H10.4375V21.8785C10.9544 21.9595 11.4768 22.0001 12 22C12.5232 22.0001 13.0456 21.9595 13.5625 21.8785V14.8906H15.8926Z" fill="white"/>
</g>
</g>
</svg>
