<svg width="24" height="24" viewBox="0 0 24 24" fill="none" xmlns="http://www.w3.org/2000/svg">
<g id="devicon:google">
<g id="Vector">
<path d="M8.86754 2.54821C6.80434 3.2496 5.02504 4.58086 3.791 6.34644C2.55695 8.11202 1.93319 10.2189 2.01136 12.3575C2.08952 14.4962 2.86548 16.5539 4.22526 18.2284C5.58503 19.903 7.45696 21.1061 9.56607 21.6611C11.276 22.0934 13.0675 22.1124 14.7865 21.7164C16.3438 21.3736 17.7835 20.6404 18.9648 19.5885C20.1942 18.4603 21.0866 17.0251 21.546 15.4371C22.0453 13.7103 22.1341 11.8943 21.8057 10.1285H12.2037V14.0317H17.7645C17.6534 14.6543 17.4152 15.2484 17.0643 15.7787C16.7134 16.3089 16.2569 16.7643 15.7222 17.1176C15.0431 17.5578 14.2777 17.8539 13.4749 17.9871C12.6698 18.1338 11.8441 18.1338 11.039 17.9871C10.223 17.8218 9.45105 17.4917 8.77236 17.018C7.68205 16.2617 6.86338 15.1872 6.43317 13.9479C5.99568 12.6854 5.99568 11.3167 6.43317 10.0542C6.7394 9.16928 7.24565 8.36354 7.91412 7.69714C8.6791 6.92053 9.64759 6.3654 10.7133 6.09267C11.7791 5.81993 12.9009 5.84013 13.9557 6.15104C14.7797 6.39891 15.5332 6.83199 16.1561 7.41575C16.7832 6.80447 17.4091 6.19162 18.0339 5.57718C18.3566 5.24678 18.7083 4.93218 19.0261 4.59387C18.0752 3.72672 16.959 3.05197 15.7415 2.60829C13.5245 1.81941 11.0986 1.79821 8.86754 2.54821Z" fill="white"/>
<path d="M8.86754 2.54821C11.0984 1.7977 13.5243 1.81834 15.7415 2.60671C16.9592 3.05341 18.0749 3.7314 19.0245 4.60178C18.7018 4.94009 18.3614 5.25626 18.0323 5.58509C17.4064 6.19741 16.781 6.80763 16.1561 7.41575C15.5332 6.83199 14.7797 6.39891 13.9557 6.15104C12.9012 5.83904 11.7795 5.81768 10.7134 6.0893C9.64741 6.36091 8.67833 6.91502 7.91251 7.69082C7.24403 8.35722 6.73779 9.16296 6.43155 10.0479L3.08732 7.5106C4.28435 5.18443 6.35694 3.40509 8.86754 2.54821Z" fill="#E33629"/>
<path d="M2.20004 10.0242C2.37979 9.15123 2.67821 8.30582 3.08732 7.5106L6.43155 10.0542C5.99407 11.3167 5.99407 12.6854 6.43155 13.9479C5.31735 14.7911 4.2026 15.6384 3.08732 16.49C2.06315 14.4923 1.7508 12.2161 2.20004 10.0242Z" fill="#F8BD00"/>
<path d="M12.2037 10.127H21.8057C22.1341 11.8927 22.0453 13.7087 21.546 15.4356C21.0866 17.0235 20.1942 18.4587 18.9648 19.5869C17.8855 18.7617 16.8014 17.9428 15.7222 17.1176C16.2573 16.7639 16.7139 16.308 17.0649 15.7772C17.4158 15.2464 17.6538 14.6517 17.7645 14.0286H12.2037C12.2021 12.7291 12.2037 11.428 12.2037 10.127Z" fill="#587DBD"/>
<path d="M3.0857 16.49C4.20099 15.6469 5.31573 14.7995 6.42994 13.9479C6.86101 15.1877 7.68085 16.2622 8.77236 17.018C9.45316 17.4895 10.2267 17.8169 11.0438 17.9792C11.8489 18.1259 12.6747 18.1259 13.4798 17.9792C14.2825 17.846 15.048 17.5499 15.727 17.1097C16.8063 17.9349 17.8904 18.7538 18.9696 19.579C17.7886 20.6315 16.3488 21.3652 14.7913 21.7085C13.0723 22.1045 11.2808 22.0855 9.57091 21.6532C8.21854 21.2993 6.95533 20.6755 5.86047 19.8209C4.70162 18.9193 3.75512 17.7831 3.0857 16.49Z" fill="#319F43"/>
</g>
</g>
</svg>
